<?xml version="1.0" standalone="no"?>
<!DOCTYPE svg PUBLIC "-//W3C//DTD SVG 20010904//EN"
 "http://www.w3.org/TR/2001/REC-SVG-20010904/DTD/svg10.dtd">
<svg version="1.0" xmlns="http://www.w3.org/2000/svg"
 width="400.000000pt" height="400.000000pt" viewBox="0 0 400.000000 400.000000"
 preserveAspectRatio="xMidYMid meet">
<metadata>
Created by potrace 1.11, written by Peter Selinger 2001-2013
</metadata>
<g transform="translate(0.000000,400.000000) scale(0.100000,-0.100000)"
fill="#000000" stroke="none">
<path d="M2995 3621 c-136 -33 -218 -141 -209 -274 8 -114 76 -210 172 -241
l49 -17 13 -72 c8 -40 15 -78 16 -86 2 -8 5 -46 8 -85 l6 -71 -46 -45 c-25
-25 -60 -64 -77 -88 -17 -24 -32 -40 -33 -35 -18 72 -56 175 -90 241 -179 348
-524 591 -962 677 -112 22 -128 24 -222 32 -341 27 -619 -29 -881 -179 -41
-23 -76 -45 -79 -48 -3 -3 -21 -17 -40 -30 -19 -13 -53 -41 -75 -61 -22 -21
-52 -48 -66 -61 -83 -75 -203 -245 -267 -381 -58 -121 -113 -289 -127 -387 -4
-24 -8 -47 -10 -50 -17 -27 -25 -361 -12 -485 22 -211 80 -411 172 -600 47
-95 138 -246 170 -281 5 -7 25 -31 44 -55 62 -79 214 -225 301 -287 47 -34 90
-66 95 -70 76 -55 363 -186 455 -207 8 -2 52 -13 96 -24 73 -19 124 -27 279
-46 58 -7 245 -7 325 -1 389 34 755 182 1074 436 338 269 692 787 815 1194 12
38 24 82 27 99 2 17 7 33 9 36 9 15 19 144 19 231 -2 186 -69 346 -200 477
-51 51 -52 53 -49 105 2 42 12 104 30 178 16 67 16 67 56 79 52 16 117 75 141
127 26 60 25 138 -2 202 -71 165 -303 210 -424 83 -84 -88 -78 -258 12 -344
l28 -27 -23 -90 c-12 -50 -23 -106 -25 -126 l-2 -35 -55 4 c-30 2 -82 -1 -115
-8 -34 -7 -62 -12 -62 -11 -1 0 -4 21 -7 46 -3 25 -13 76 -21 114 l-16 68 37
50 c66 90 76 196 27 295 -51 106 -166 161 -279 134z m91 -237 c9 -36 -3 -71
-27 -77 -30 -8 -46 1 -57 32 -12 33 0 59 31 70 30 11 46 3 53 -25z m634 11
c17 -21 8 -50 -18 -53 -30 -5 -52 14 -52 44 0 20 5 24 29 24 16 0 34 -7 41
-15z m-1944 -73 c233 -50 348 -94 489 -188 273 -181 443 -471 449 -767 3 -116
-7 -179 -44 -292 -111 -336 -419 -596 -795 -670 -69 -14 -277 -14 -338 -1
-154 34 -285 102 -383 200 -78 79 -112 134 -152 246 -24 69 -26 88 -26 225 0
206 34 337 119 470 73 114 193 204 340 252 100 33 270 41 380 17 136 -29 266
-112 329 -209 47 -74 65 -143 61 -247 -1 -51 -7 -104 -13 -118 -5 -14 -11 -29
-12 -35 -17 -67 -68 -160 -114 -208 -166 -170 -427 -168 -516 3 -72 140 30
290 232 344 76 20 85 25 104 54 28 42 22 99 -14 134 -44 44 -99 41 -230 -11
-195 -78 -319 -231 -327 -403 -3 -80 9 -138 46 -213 98 -197 313 -286 553
-231 219 51 387 214 466 451 31 93 35 123 35 255 -1 99 -5 127 -29 198 -84
250 -314 425 -601 459 -337 39 -656 -86 -835 -327 -128 -173 -192 -398 -186
-660 3 -141 16 -209 62 -333 74 -194 260 -377 468 -458 149 -57 226 -72 391
-73 83 -1 176 3 208 7 70 10 213 50 273 77 24 11 63 29 87 39 70 32 217 134
290 201 69 64 162 173 209 246 57 89 127 250 142 330 23 114 112 306 191 409
74 95 82 105 142 152 160 126 309 86 440 -120 85 -133 85 -329 2 -580 -123
-367 -455 -832 -759 -1065 -30 -23 -59 -46 -65 -50 -5 -5 -45 -29 -88 -56
-219 -133 -449 -216 -692 -250 -99 -14 -380 -15 -455 -1 -156 28 -193 37 -297
71 -465 151 -809 495 -963 963 -91 276 -109 582 -50 838 44 189 98 317 195
463 157 235 370 382 660 456 127 32 134 32 325 30 156 -2 215 -7 296 -24z"/>
</g>
</svg>
